# xmcd
#
# Track frame offsets: 
#        150
#        20821
#        37956
#        55626
#        71614
#        89011
#        106101
#        125116
#        142146
#        160544
#        176846
#        194869
#
# Disc length: 2884 seconds
#
# Revision: 2
# Processed by: cddbd v1.5.2PL0 Copyright (c) Steve Scherf et al.
# Submitted via: ExactAudioCopy v1.1
#
DISCID=b10b420c
DTITLE=Paul Thorn - Mission Temple Fireworks Stand
DYEAR=2002
DGENRE=Blues Rock
TTITLE0=Everybody Looks Good At The Starting Line
TTITLE1=Rise Up
TTITLE2=Downtown Babylon
TTITLE3=Mission Temple Fireworks Stand
TTITLE4=Things Left Undone
TTITLE5=There's Something Out There
TTITLE6=Even Heroes Die
TTITLE7=Ain't Livin' In Sin No More
TTITLE8=Sister Ruby's House Of Prayer
TTITLE9=Angel Too Soon
TTITLE10=Nothin' But The Devil
TTITLE11=I'm A Lucky Man
EXTD=YEAR: 2002
EXTT0=
EXTT1=
EXTT2=
EXTT3=
EXTT4=
EXTT5=
EXTT6=
EXTT7=
EXTT8=
EXTT9=
EXTT10=
EXTT11=
PLAYORDER=
